<svg id="Capa_1" data-name="Capa 1" xmlns="http://www.w3.org/2000/svg" width="49.531" height="43.885" viewBox="0 0 49.531 43.885">
  <path id="Path_1392" data-name="Path 1392" d="M14.11,34.62v4.114a2.348,2.348,0,0,0,2.348,2.348H34.775a2.348,2.348,0,0,0,2.348-2.348V34.62Zm4.142,4.311a1.475,1.475,0,1,1,1.475-1.475,1.475,1.475,0,0,1-1.475,1.475Zm14.4,0a1.475,1.475,0,1,1,1.465-1.475,1.475,1.475,0,0,1-1.465,1.475Z" transform="translate(-0.856 -2.101)" fill="none"/>
  <path id="Path_1393" data-name="Path 1393" d="M34.775,15.71H16.458a2.348,2.348,0,0,0-2.348,2.348v.62H37.123v-.62A2.348,2.348,0,0,0,34.775,15.71Zm-3.861,2H19.7a.47.47,0,0,1-.47-.47.479.479,0,0,1,.47-.47H30.915a.47.47,0,0,1,0,.939Z" transform="translate(-0.856 -0.953)" fill="none"/>
  <rect id="Rectangle_47" data-name="Rectangle 47" width="23.013" height="12.916" transform="translate(13.254 18.664)" fill="none"/>
  <path id="Path_1394" data-name="Path 1394" d="M34.922,42.53v1.644a1.146,1.146,0,0,1-2.292,0V42.53Z" transform="translate(-1.98 -2.581)" fill="none"/>
  <path id="Path_1395" data-name="Path 1395" d="M18.486,37.08a.526.526,0,0,0-.526.526.535.535,0,0,0,.526.535.545.545,0,0,0,.535-.535A.535.535,0,0,0,18.486,37.08Z" transform="translate(-1.09 -2.25)" fill="none"/>
  <path id="Path_1396" data-name="Path 1396" d="M33.816,38.141a.535.535,0,0,0,.526-.535.526.526,0,1,0-1.052,0,.535.535,0,0,0,.526.535Z" transform="translate(-2.02 -2.25)" fill="none"/>
  <path id="Path_1397" data-name="Path 1397" d="M48.652,1.47V8.1H1V1.47A.47.47,0,0,1,1.47,1H48.182A.47.47,0,0,1,48.652,1.47Z" transform="translate(-0.061 -0.061)" fill="none"/>
  <path id="Path_1398" data-name="Path 1398" d="M31.452,45.526H20.18a2.1,2.1,0,0,0,.507-1.353V42.53H30.935v1.644A2.048,2.048,0,0,0,31.452,45.526Z" transform="translate(-1.224 -2.581)" fill="none"/>
  <path id="Path_1399" data-name="Path 1399" d="M19.592,42.53v1.644a1.146,1.146,0,1,1-2.283,0V42.53Z" transform="translate(-1.05 -2.581)" fill="none"/>
  <path id="Path_1400" data-name="Path 1400" d="M49.531,8.98V1.409A1.409,1.409,0,0,0,48.122,0H1.409A1.409,1.409,0,0,0,0,1.409V8.98H2.677V42.946H.47v.939H49.061v-.939H46.853V8.98Zm-31,32.613a1.146,1.146,0,1,1-2.283,0V39.949h2.283ZM36.267,18.664V31.58H13.254V18.664Zm-23.013-.939v-.62A2.348,2.348,0,0,1,15.6,14.757H33.919a2.348,2.348,0,0,1,2.348,2.348v.62ZM36.267,32.519v4.114a2.348,2.348,0,0,1-2.348,2.348H15.6a2.348,2.348,0,0,1-2.348-2.348V32.519ZM18.974,42.946a2.1,2.1,0,0,0,.507-1.353V39.949H29.711v1.644a2.048,2.048,0,0,0,.517,1.353Zm13.968-1.353a1.146,1.146,0,1,1-2.292,0V39.949h2.292Zm12.972,1.353H33.365a2.048,2.048,0,0,0,.517-1.353V39.949h0a3.288,3.288,0,0,0,3.288-3.288V17.105a3.288,3.288,0,0,0-3.288-3.288H15.6a3.288,3.288,0,0,0-3.288,3.288V36.634a3.278,3.278,0,0,0,3.006,3.259v1.672a2.1,2.1,0,0,0,.507,1.353H3.616V8.98h42.27ZM.939,8.041V1.409a.47.47,0,0,1,.47-.47H48.122a.47.47,0,0,1,.47.47V8.041Z" transform="translate(0)" fill="#767676"/>
  <path id="Path_1401" data-name="Path 1401" d="M33.755,39.019a1.475,1.475,0,1,0-1.465-1.475,1.475,1.475,0,0,0,1.465,1.475Zm0-2a.526.526,0,1,1-.526.526A.526.526,0,0,1,33.755,37.019Z" transform="translate(-1.959 -2.189)" fill="#767676"/>
  <path id="Path_1402" data-name="Path 1402" d="M18.425,36.08a1.465,1.465,0,1,0,1.042.426A1.475,1.475,0,0,0,18.425,36.08Zm0,2a.535.535,0,0,1-.526-.535.526.526,0,0,1,.526-.526.535.535,0,0,1,.535.526.545.545,0,0,1-.535.535Z" transform="translate(-1.028 -2.189)" fill="#767676"/>
  <path id="Path_1403" data-name="Path 1403" d="M31.245,16.84H20.03a.479.479,0,0,0-.47.47.47.47,0,0,0,.47.47H31.245a.47.47,0,0,0,0-.939Z" transform="translate(-1.187 -1.022)" fill="#767676"/>
</svg>
