<svg xmlns="http://www.w3.org/2000/svg" width="46.237" height="39.402" viewBox="0 0 46.237 39.402">
  <g id="Group_4540" data-name="Group 4540" transform="translate(-214.344 -1423.432)">
    <path id="Path_1352" data-name="Path 1352" d="M46.032.07A.508.508,0,0,0,45.782,0,.463.463,0,0,0,45.6,0L34.455,4.9,11.827,0h-.1a.4.4,0,0,0-.143,0L.276,4.99A.463.463,0,0,0,0,5.409V38.937a.446.446,0,0,0,.2.374.437.437,0,0,0,.25.08.481.481,0,0,0,.187-.045l11.14-4.893L34.41,39.382H34.5a.446.446,0,0,0,.187-.045l11.274-4.955a.446.446,0,0,0,.276-.419V.453a.481.481,0,0,0-.2-.383ZM34.446,5.854h.1a.41.41,0,0,0,.178,0l4.652-2.041,2.674-1.176,1.738-.766L41.121,4.455l-6.506,6.506-.223-.107a7.468,7.468,0,0,0-3.2-.713,7.353,7.353,0,0,0-3.743,1.016l-.232.143-4.83-4.83L25.061,3.8Zm1.364,7.13a6.444,6.444,0,0,1,.66,8.378l-5.276,7.157-5.232-7.2a6.47,6.47,0,0,1,9.8-8.378ZM.891,5.712,11.764.935,23.983,3.564l-4.26,4.278a.463.463,0,0,0,.651.651l1.372-1.364,4.724,4.724-.276.25-.214.2a7.37,7.37,0,0,0-1.586,8.066l.089.214L14.812,30.3l-8.1-8.146,9.937-9.946a.455.455,0,0,0,0-.642.437.437,0,0,0-.321-.134.428.428,0,0,0-.285.152l-4.857,4.848L.891,6.175Zm0,1.782,4.688,4.688L.891,16.834Zm0,10.695,5.347-5.347,4.269,4.269L.891,26.655Zm0,9.8L6.06,22.8l2.05,2.059L.891,32.083Zm10.561,5.641L.891,38.233V33.34L8.743,25.5l5.4,5.4Zm1.176.116,12-12.023.356-.2,4.117,5.65-8.306,8.306ZM34.437,38.5,21.853,35.71l7.78-7.789,1.194,1.649a.472.472,0,0,0,.374.187.455.455,0,0,0,.365-.187l1-1.372,7.7,7.7ZM45.31,33.723,41.148,35.55l-8.021-8.021,3.752-5.249,8.449,8.449Zm0-4.269L37.432,21.5l.134-.241a7.353,7.353,0,0,0-1.15-8.966,8.422,8.422,0,0,0-.668-.6l-.321-.25,9.9-9.893Z" transform="translate(214.344 1423.442)" fill="#767676"/>
    <path id="Path_1353" data-name="Path 1353" d="M34.578,22.678a3.449,3.449,0,1,1,3.44-3.44,3.449,3.449,0,0,1-3.44,3.44Zm0-5.971a2.531,2.531,0,1,0,2.531,2.531A2.531,2.531,0,0,0,34.578,16.707Z" transform="translate(210.959 1421.725)" fill="#767676"/>
  </g>
</svg>
