<svg xmlns="http://www.w3.org/2000/svg" width="46.986" height="44.832" viewBox="0 0 46.986 44.832">
  <g id="Capa_1" data-name="Capa 1" transform="translate(0)">
    <path id="Path_1379" data-name="Path 1379" d="M20.973,38.576a.543.543,0,0,0,.533-.543.533.533,0,0,0-.533-.533.543.543,0,0,0-.543.533A.552.552,0,0,0,20.973,38.576Z" transform="translate(-0.971 -1.782)" fill="none"/>
    <path id="Path_1380" data-name="Path 1380" d="M16.57,39.239a2.381,2.381,0,0,0,2.381,2.381H37.525a2.381,2.381,0,0,0,2.381-2.381V35H16.57Zm18.8-2.857a1.462,1.462,0,1,0,0,.048Zm-14.582.048a1.486,1.486,0,1,1-1.057.432,1.5,1.5,0,0,1,1.057-.432Z" transform="translate(-0.787 -1.663)" fill="none"/>
    <rect id="Rectangle_46" data-name="Rectangle 46" width="23.336" height="13.097" transform="translate(15.783 19.326)" fill="none"/>
    <path id="Path_1381" data-name="Path 1381" d="M36.283,38.579a.508.508,0,1,0-.533-.543.543.543,0,0,0,.533.543Z" transform="translate(-1.699 -1.785)" fill="none"/>
    <path id="Path_1382" data-name="Path 1382" d="M35.1,44.619a1.162,1.162,0,1,0,2.315,0V43H35.1Z" transform="translate(-1.668 -2.043)" fill="none"/>
    <path id="Path_1383" data-name="Path 1383" d="M19.77,44.619a1.162,1.162,0,1,0,2.324,0V43H19.77Z" transform="translate(-0.939 -2.043)" fill="none"/>
    <path id="Path_1384" data-name="Path 1384" d="M4.73,15.981l8.01-8H4.73Z" transform="translate(-0.225 -0.379)" fill="none"/>
    <path id="Path_1385" data-name="Path 1385" d="M40.287,1H10.7A5.982,5.982,0,0,0,4.74,6.715H46.249A5.982,5.982,0,0,0,40.287,1Z" transform="translate(-0.225 -0.048)" fill="none"/>
    <path id="Path_1386" data-name="Path 1386" d="M37.525,16.13H18.951a2.381,2.381,0,0,0-2.381,2.381v.629H39.906v-.629a2.381,2.381,0,0,0-2.381-2.381Zm-3.953,2.029H22.247a.476.476,0,0,1,0-.952H33.572a.476.476,0,0,1,0,.952Z" transform="translate(-0.787 -0.766)" fill="none"/>
    <path id="Path_1387" data-name="Path 1387" d="M37.477,15.13H18.9a3.334,3.334,0,0,0-3.334,3.334V38.294A3.324,3.324,0,0,0,18.618,41.6v1.7a2.115,2.115,0,1,0,4.229,0V41.676H33.219v1.619a2.115,2.115,0,1,0,4.22,0V41.676h0a3.334,3.334,0,0,0,3.334-3.334V18.464a3.334,3.334,0,0,0-3.3-3.334ZM16.522,20.045H39.858V33.1H16.522Zm5.372,23.25a1.162,1.162,0,1,1-2.324,0V41.676h2.324Zm14.592,0a1.162,1.162,0,1,1-2.315,0V41.676h2.315Zm3.372-5a2.381,2.381,0,0,1-2.381,2.381H18.9a2.381,2.381,0,0,1-2.381-2.381V34.056H39.858Zm0-19.2H16.522v-.629A2.381,2.381,0,0,1,18.9,16.082H37.477a2.381,2.381,0,0,1,2.381,2.381Z" transform="translate(-0.74 -0.719)" fill="#767676"/>
    <path id="Path_1388" data-name="Path 1388" d="M36.236,39.481a1.5,1.5,0,1,0-1.486-1.5,1.5,1.5,0,0,0,1.486,1.5Zm0-2.029a.533.533,0,0,1,.543.533.543.543,0,1,1-1.076,0A.533.533,0,0,1,36.236,37.452Z" transform="translate(-1.651 -1.734)" fill="#767676"/>
    <path id="Path_1389" data-name="Path 1389" d="M20.925,39.481a1.486,1.486,0,1,0-1.06-.435A1.5,1.5,0,0,0,20.925,39.481Zm0-2.029a.533.533,0,0,1,.533.533.543.543,0,0,1-.533.543.552.552,0,0,1-.543-.543.543.543,0,0,1,.543-.533Z" transform="translate(-0.923 -1.734)" fill="#767676"/>
    <path id="Path_1390" data-name="Path 1390" d="M33.831,17.26H22.506a.476.476,0,1,0,0,.952H33.831a.476.476,0,0,0,0-.952Z" transform="translate(-1.047 -0.82)" fill="#767676"/>
    <path id="Path_1391" data-name="Path 1391" d="M40.061,0H10.477A6.925,6.925,0,0,0,3.553,6.915V43.738H.476a.476.476,0,1,0,0,.952H7.62a.476.476,0,1,0,0-.952H4.505V16.954L13.859,7.62H46.986v-.7A6.925,6.925,0,0,0,40.061,0ZM4.505,15.6V7.62h8.01Zm0-8.953a5.982,5.982,0,0,1,5.972-5.7H40.061a5.982,5.982,0,0,1,5.963,5.715Z" fill="#767676"/>
  </g>
</svg>
