<svg id="Layer_1" data-name="Layer 1" xmlns="http://www.w3.org/2000/svg" width="46.896" height="40.872" viewBox="0 0 46.896 40.872">
  <path id="Path_1360" data-name="Path 1360" d="M46.114,6.971V1.446A.446.446,0,0,0,45.668,1H1.446A.446.446,0,0,0,1,1.446V6.971Z" transform="translate(-0.109 -0.109)" fill="none"/>
  <rect id="Rectangle_39" data-name="Rectangle 39" width="7.281" height="10.08" transform="translate(8.618 21.158)" fill="none"/>
  <rect id="Rectangle_40" data-name="Rectangle 40" width="7.281" height="10.08" transform="translate(31.959 21.158)" fill="none"/>
  <rect id="Rectangle_41" data-name="Rectangle 41" width="37.931" height="3.476" transform="translate(4.492 7.754)" fill="none"/>
  <rect id="Rectangle_42" data-name="Rectangle 42" width="7.281" height="10.08" transform="translate(20.293 21.158)" fill="none"/>
  <path id="Path_1361" data-name="Path 1361" d="M45.17,42.44v2.166h5.757V42.44H45.17Z" transform="translate(-4.913 -4.616)" fill="none"/>
  <path id="Path_1362" data-name="Path 1362" d="M8.275,32.717V21.746h9.064V32.717H19.95V21.746h9.064V32.717h2.6V21.746h9.073V32.717h2.282V13.6H5.04V32.717Z" transform="translate(-0.548 -1.479)" fill="none"/>
  <path id="Path_1363" data-name="Path 1363" d="M1,42.44v2.166H7.72V42.44H1Z" transform="translate(-0.109 -4.616)" fill="none"/>
  <path id="Path_1364" data-name="Path 1364" d="M42.971,36.06H5.04v4.795H9.051v3.057H39.914V40.855h3.057Z" transform="translate(-0.548 -3.922)" fill="none"/>
  <path id="Path_1365" data-name="Path 1365" d="M43.314,36.932V31.246h0V7.754h3.565V1.337A1.337,1.337,0,0,0,45.559,0H1.337A1.337,1.337,0,0,0,0,1.337V7.754H3.565V32.138h0v4.795H0v3.939H46.9V36.932Zm-4.1-5.686H31.959V21.158h7.255Zm-11.675,0H20.293V21.158h7.281Zm-11.675,0H8.618V21.158H15.9ZM.891,6.862V1.337A.446.446,0,0,1,1.337.891H45.56a.446.446,0,0,1,.446.446V6.862Zm41.531.891v3.476H4.456V7.754Zm0,4.367V31.246H40.105V20.267H31.068v10.98h-2.6V20.267H19.4v10.98H16.791V20.267H7.727v10.98H4.456V12.121ZM7.611,39.98H.891V37.824h6.72Zm31.754-3.048V39.98H8.5V36.932H4.456V32.138H42.422v4.795Zm6.64,3.048H40.257V37.824h5.748Z" transform="translate(0 0)" fill="#767676"/>
</svg>
